<?xml version="1.0" encoding="UTF-8"?>
<!DOCTYPE svg PUBLIC "-//W3C//DTD SVG 1.1//EN" "http://www.w3.org/Graphics/SVG/1.1/DTD/svg11.dtd">
<svg version="1.2" width="160mm" height="160mm" viewBox="0 0 16000 16000" preserveAspectRatio="xMidYMid" fill-rule="evenodd" stroke-width="28.222" stroke-linejoin="round" xmlns="http://www.w3.org/2000/svg" xmlns:ooo="http://xml.openoffice.org/svg/export" xmlns:xlink="http://www.w3.org/1999/xlink" xmlns:presentation="http://sun.com/xmlns/staroffice/presentation" xmlns:smil="http://www.w3.org/2001/SMIL20/" xmlns:anim="urn:oasis:names:tc:opendocument:xmlns:animation:1.0" xmlns:svg="urn:oasis:names:tc:opendocument:xmlns:svg-compatible:1.0" xml:space="preserve">
 <defs class="ClipPathGroup">
  <clipPath id="presentation_clip_path" clipPathUnits="userSpaceOnUse">
   <rect x="0" y="0" width="16000" height="16000"/>
  </clipPath>
  <clipPath id="presentation_clip_path_shrink" clipPathUnits="userSpaceOnUse">
   <rect x="16" y="16" width="15968" height="15968"/>
  </clipPath>
 </defs>
 <defs class="TextShapeIndex">
  <g ooo:slide="id1" ooo:id-list="id3 id4 id5 id6 id7 id8 id9"/>
 </defs>
 <defs class="EmbeddedBulletChars">
  <g id="bullet-char-template-57356" transform="scale(0.00048828125,-0.00048828125)">
   <path d="M 580,1141 L 1163,571 580,0 -4,571 580,1141 Z"/>
  </g>
  <g id="bullet-char-template-57354" transform="scale(0.00048828125,-0.00048828125)">
   <path d="M 8,1128 L 1137,1128 1137,0 8,0 8,1128 Z"/>
  </g>
  <g id="bullet-char-template-10146" transform="scale(0.00048828125,-0.00048828125)">
   <path d="M 174,0 L 602,739 174,1481 1456,739 174,0 Z M 1358,739 L 309,1346 659,739 1358,739 Z"/>
  </g>
  <g id="bullet-char-template-10132" transform="scale(0.00048828125,-0.00048828125)">
   <path d="M 2015,739 L 1276,0 717,0 1260,543 174,543 174,936 1260,936 717,1481 1274,1481 2015,739 Z"/>
  </g>
  <g id="bullet-char-template-10007" transform="scale(0.00048828125,-0.00048828125)">
   <path d="M 0,-2 C -7,14 -16,27 -25,37 L 356,567 C 262,823 215,952 215,954 215,979 228,992 255,992 264,992 276,990 289,987 310,991 331,999 354,1012 L 381,999 492,748 772,1049 836,1024 860,1049 C 881,1039 901,1025 922,1006 886,937 835,863 770,784 769,783 710,716 594,584 L 774,223 C 774,196 753,168 711,139 L 727,119 C 717,90 699,76 672,76 641,76 570,178 457,381 L 164,-76 C 142,-110 111,-127 72,-127 30,-127 9,-110 8,-76 1,-67 -2,-52 -2,-32 -2,-23 -1,-13 0,-2 Z"/>
  </g>
  <g id="bullet-char-template-10004" transform="scale(0.00048828125,-0.00048828125)">
   <path d="M 285,-33 C 182,-33 111,30 74,156 52,228 41,333 41,471 41,549 55,616 82,672 116,743 169,778 240,778 293,778 328,747 346,684 L 369,508 C 377,444 397,411 428,410 L 1163,1116 C 1174,1127 1196,1133 1229,1133 1271,1133 1292,1118 1292,1087 L 1292,965 C 1292,929 1282,901 1262,881 L 442,47 C 390,-6 338,-33 285,-33 Z"/>
  </g>
  <g id="bullet-char-template-9679" transform="scale(0.00048828125,-0.00048828125)">
   <path d="M 813,0 C 632,0 489,54 383,161 276,268 223,411 223,592 223,773 276,916 383,1023 489,1130 632,1184 813,1184 992,1184 1136,1130 1245,1023 1353,916 1407,772 1407,592 1407,412 1353,268 1245,161 1136,54 992,0 813,0 Z"/>
  </g>
  <g id="bullet-char-template-8226" transform="scale(0.00048828125,-0.00048828125)">
   <path d="M 346,457 C 273,457 209,483 155,535 101,586 74,649 74,723 74,796 101,859 155,911 209,963 273,989 346,989 419,989 480,963 531,910 582,859 608,796 608,723 608,648 583,586 532,535 482,483 420,457 346,457 Z"/>
  </g>
  <g id="bullet-char-template-8211" transform="scale(0.00048828125,-0.00048828125)">
   <path d="M -4,459 L 1135,459 1135,606 -4,606 -4,459 Z"/>
  </g>
  <g id="bullet-char-template-61548" transform="scale(0.00048828125,-0.00048828125)">
   <path d="M 173,740 C 173,903 231,1043 346,1159 462,1274 601,1332 765,1332 928,1332 1067,1274 1183,1159 1299,1043 1357,903 1357,740 1357,577 1299,437 1183,322 1067,206 928,148 765,148 601,148 462,206 346,322 231,437 173,577 173,740 Z"/>
  </g>
 </defs>
 <g>
  <g id="id2" class="Master_Slide">
   <g id="bg-id2" class="Background"/>
   <g id="bo-id2" class="BackgroundObjects"/>
  </g>
 </g>
 <g class="SlideGroup">
  <g>
   <g id="container-id1">
    <g id="id1" class="Slide" clip-path="url(#presentation_clip_path)">
     <g class="Page">
      <g class="com.sun.star.drawing.CustomShape">
       <g id="id3">
        <rect class="BoundingBox" stroke="none" fill="none" x="4900" y="2850" width="1302" height="1302"/>
        <path fill="rgb(224,224,224)" stroke="none" d="M 6201,3501 C 6201,3615 6171,3727 6114,3826 6057,3925 5975,4007 5876,4064 5777,4121 5665,4151 5551,4151 5436,4151 5324,4121 5225,4064 5126,4007 5044,3925 4987,3826 4930,3727 4900,3615 4900,3501 4900,3386 4930,3274 4987,3175 5044,3076 5126,2994 5225,2937 5324,2880 5436,2850 5550,2850 5665,2850 5777,2880 5876,2937 5975,2994 6057,3076 6114,3175 6171,3274 6201,3386 6201,3500 L 6201,3501 Z"/>
       </g>
      </g>
      <g class="com.sun.star.drawing.CustomShape">
       <g id="id4">
        <rect class="BoundingBox" stroke="none" fill="none" x="10000" y="3000" width="1002" height="1002"/>
        <path fill="rgb(224,224,224)" stroke="none" d="M 11001,3501 C 11001,3588 10978,3675 10934,3751 10890,3827 10827,3890 10751,3934 10675,3978 10588,4001 10501,4001 10413,4001 10326,3978 10250,3934 10174,3890 10111,3827 10067,3751 10023,3675 10000,3588 10000,3501 10000,3413 10023,3326 10067,3250 10111,3174 10174,3111 10250,3067 10326,3023 10413,3000 10501,3000 10588,3000 10675,3023 10751,3067 10827,3111 10890,3174 10934,3250 10978,3326 11001,3413 11001,3500 L 11001,3501 Z"/>
       </g>
      </g>
      <g class="com.sun.star.drawing.CustomShape">
       <g id="id5">
        <rect class="BoundingBox" stroke="none" fill="none" x="12350" y="7351" width="1302" height="1302"/>
        <path fill="rgb(224,224,224)" stroke="none" d="M 13651,8002 C 13651,8116 13621,8228 13564,8327 13507,8426 13425,8508 13326,8565 13227,8622 13115,8652 13001,8652 12886,8652 12774,8622 12675,8565 12576,8508 12494,8426 12437,8327 12380,8228 12350,8116 12350,8002 12350,7887 12380,7775 12437,7676 12494,7577 12576,7495 12675,7438 12774,7381 12886,7351 13001,7351 13115,7351 13227,7381 13326,7438 13425,7495 13507,7577 13564,7676 13621,7775 13651,7887 13651,8001 L 13651,8002 Z"/>
       </g>
      </g>
      <g class="com.sun.star.drawing.CustomShape">
       <g id="id6">
        <rect class="BoundingBox" stroke="none" fill="none" x="6250" y="6250" width="3502" height="3502"/>
        <path fill="rgb(169,240,108)" stroke="none" d="M 6250,9751 L 6250,7232 7232,6250 9751,6250 9751,8768 8768,9751 6250,9751 Z"/>
        <path fill="rgb(185,243,136)" stroke="none" d="M 6250,7232 L 7232,6250 9751,6250 8768,7232 6250,7232 Z"/>
        <path fill="rgb(135,192,86)" stroke="none" d="M 8768,9751 L 8768,7232 9751,6250 9751,8768 8768,9751 Z"/>
       </g>
      </g>
      <g class="com.sun.star.drawing.CustomShape">
       <g id="id7">
        <rect class="BoundingBox" stroke="none" fill="none" x="10000" y="12000" width="1002" height="1002"/>
        <path fill="rgb(224,224,224)" stroke="none" d="M 11001,12501 C 11001,12588 10978,12675 10934,12751 10890,12827 10827,12890 10751,12934 10675,12978 10588,13001 10501,13001 10413,13001 10326,12978 10250,12934 10174,12890 10111,12827 10067,12751 10023,12675 10000,12588 10000,12501 10000,12413 10023,12326 10067,12250 10111,12174 10174,12111 10250,12067 10326,12023 10413,12000 10501,12000 10588,12000 10675,12023 10751,12067 10827,12111 10890,12174 10934,12250 10978,12326 11001,12413 11001,12501 L 11001,12501 Z"/>
       </g>
      </g>
      <g class="com.sun.star.drawing.CustomShape">
       <g id="id8">
        <rect class="BoundingBox" stroke="none" fill="none" x="4901" y="11851" width="1302" height="1302"/>
        <path fill="rgb(224,224,224)" stroke="none" d="M 6202,12502 C 6202,12616 6172,12728 6115,12827 6058,12926 5976,13008 5877,13065 5778,13122 5666,13152 5551,13152 5437,13152 5325,13122 5226,13065 5127,13008 5045,12926 4988,12827 4931,12728 4901,12616 4901,12502 4901,12387 4931,12275 4988,12176 5045,12077 5127,11995 5226,11938 5325,11881 5437,11851 5551,11851 5666,11851 5778,11881 5877,11938 5976,11995 6058,12077 6115,12176 6172,12275 6202,12387 6202,12502 L 6202,12502 Z"/>
       </g>
      </g>
      <g class="com.sun.star.drawing.CustomShape">
       <g id="id9">
        <rect class="BoundingBox" stroke="none" fill="none" x="2550" y="7500" width="1002" height="1002"/>
        <path fill="rgb(224,224,224)" stroke="none" d="M 3551,8001 C 3551,8088 3528,8175 3484,8251 3440,8327 3377,8390 3301,8434 3225,8478 3138,8501 3051,8501 2963,8501 2876,8478 2800,8434 2724,8390 2661,8327 2617,8251 2573,8175 2550,8088 2550,8001 2550,7913 2573,7826 2617,7750 2661,7674 2724,7611 2800,7567 2876,7523 2963,7500 3050,7500 3138,7500 3225,7523 3301,7567 3377,7611 3440,7674 3484,7750 3528,7826 3551,7913 3551,8000 L 3551,8001 Z"/>
       </g>
      </g>
     </g>
    </g>
   </g>
  </g>
 </g>
</svg>